<svg xmlns="http://www.w3.org/2000/svg" version="1.0" viewBox="0 0 1254 1254">
  <style>
    .icon { fill: #000F06; }
    @media (prefers-color-scheme: dark) {
      .icon { fill: #CCFF00; }
    }
  </style>
  <path class="icon" d="M569 179.4c-14.4 5-25.8 12.4-39.1 25.3l-8.6 8.4-7.4-4c-30.1-16.2-60.4-19-78-7.4-5.8 3.8-8.9 9.6-8.9 16.6 0 4.7.5 6.2 3.3 9.9 3.9 5.2 12.9 10.3 21 11.9 3.1.6 5.7 1.4 5.7 1.8-.1.3-4 2.8-8.7 5.6-27.7 16-54.1 40.8-72.1 67.5-20 29.9-35 70.7-38.3 104.4-1.5 16.1-.8 41.9 1.6 59.3l.6 4.2-8.8 5.7c-33.8 21.7-67.3 52-75.3 67.8-7.4 14.6-1.2 27 16 32.4 4.2 1.3 8.9 1.7 19.5 1.6 12.2-.1 15.8-.5 27.5-3.3 7.4-1.8 14.5-3.5 15.7-3.8l2.2-.5-2 7.3c-1 4.1-4.9 17.6-8.6 30.2-3.6 12.5-6.4 22.9-6.2 23 .2.2 5.6 3.2 11.9 6.7 60.8 33.5 127.4 81.8 183 132.6 28.9 26.6 68 67.3 68 71 0 1.8.2 1.6-18.2 27.1-7.6 10.5-13.8 19.6-13.8 20.2 0 .5 1.5 2 3.3 3.3 5.1 3.7 23.5 19.6 32.6 28.3 29.1 27.9 60.9 71.9 76.7 106.1 3.4 7.4 3.5 7.4 7.4 7.4 6.6 0 18.2-2.9 24.9-6.3 6.4-3.2 6.5-3.3 14.6-16.7 14.4-24 25.5-38.9 41.4-55.3 16.6-17.1 33-29.8 56.6-43.9 4.1-2.5 4.5-3 3.5-4.8-2-3.7-18.6-25.2-26.4-34.2-4.2-4.8-7.6-9-7.6-9.3s2.6-2.2 5.8-4.2c8.9-5.6 13.9-9.9 24.2-20.2 13.9-14 27.2-35 34-53.9 1.2-3.4 2.6-6.2 3-6.2 1.6 0 10.8 6.8 14.7 10.9 5.4 5.7 10.8 16.1 13.4 25.8 1.7 6.5 2.2 12.8 2.9 36.8 1.1 36.6 3 47.9 11.2 63.9 13.5 26.8 40.1 42 70.3 40.3 18-1 30.6-6.8 42.6-19.4 15.2-16.1 25.1-46.4 26.1-80.2l.3-9.3-4.8-4.4c-7.4-6.7-23.5-13.5-40-16.8-18.5-3.8-40.5-4.3-46.7-1.1-3.4 1.8-4.1 3.3-10.1 22-2.8 8.8-5.3 16.4-5.6 16.8-.8 1.4-3-2.6-4.7-8.3-.8-3-2.9-13.4-4.6-23-3.7-20.5-6.7-30.6-12.3-41.5-7-13.5-17.3-24.1-30.7-31.7-3-1.7-5.7-3.2-5.8-3.4-.2-.1.3-3.3 1.1-7.1 5.9-26 .6-53.5-14.9-76.7-2.9-4.4-3.3-5.6-2.5-8.2 1.7-5.9 2.2-17 1.1-24.2-1.4-9.7-5.8-20.2-12-28.2-8.3-10.7-8.3-10.7-8.8-18.5-.9-13.6-.1-15.5 9.4-25.7 13.9-14.9 18.4-27 15.4-42-1.6-8.3-5.9-17.4-16.5-35.2-4.8-8-8.6-14.8-8.4-15s8.1-.9 17.4-1.5c34.4-2.1 52.2-7.6 59.3-18.3 2.9-4.5 3.5-11 1.2-15.3-2-3.8-15.8-15-29.4-23.9-21.1-13.9-43.2-25.6-72.9-38.5l-12.8-5.6-5.3-14c-19.6-52-54-94.2-97.8-119.9C661.5 237 628 225.4 599 221l-8.5-1.3 3-2.1c10.7-7.7 15.5-14.5 15.5-22.1s-3.7-12.6-12-16.4c-6.4-2.9-19.2-2.8-28 .3m12.9 16.5c4.3 2.7-6.2 11.2-19.3 15.8-6.2 2.2-19.7 5.3-22.9 5.3-2.9 0 12.5-12 21.3-16.5 8.3-4.3 18-6.4 20.9-4.6M484.6 214c10.7 2.5 22.1 7.1 20.3 8.1-3.4 1.8-19.7 2.9-29.8 1.9-17.2-1.6-26.5-7.5-17.1-10.7 5.3-1.8 17.6-1.5 26.6.7m81.4 20c75.5 5.7 132.5 39.5 169.5 100.5 8.1 13.4 20.4 39 19.3 40-.2.2-3.4-.3-7.3-1.1-11.7-2.4-50.7-2.9-71.5-1-20.6 2-45.2 6-67.5 11.1-17.6 3.9-52.7 13.3-61.9 16.5-9.4 3.2-8.8 3.8-12.4-12.3-1.8-7.8-3.9-17.8-4.7-22.1-7.7-41.6-6.3-93.3 3.6-125.1 1.5-5 2.4-6.5 4.2-6.8 4.2-.8 15.2-.7 28.7.3m-51 11.5c-14.3 42.3-14.5 93.8-.5 148.9 1.9 7.7 3.4 14 3.3 14.2-.2.1-11.8 4-25.8 8.7-40 13.2-77.3 28.3-107.1 43.2-8.3 4.2-15.5 7.3-16 6.8-1.5-1.6-2.1-26.7-1-41.3 4.4-53.8 27.4-104.4 63.7-140.2 22.7-22.3 43.3-35.1 72.4-44.9 6.3-2.1 12-3.9 12.7-3.9.8 0 .2 2.9-1.7 8.5M727.5 389c29.9 2 34.5 3.2 65.5 17.3 28 12.7 49.2 24.4 69 37.8 14.7 10.1 15.5 10.7 14.6 11.6-.4.5-8.7 1-18.4 1.1-46.2 1-157.8-10.4-244.2-24.7-34.8-5.8-70-12.4-70-13.1 0-.8 21.6-7.2 42-12.4 34.8-9.1 73.2-15.6 102.5-17.5 17.5-1.2 22.4-1.2 39-.1m-72.4 96.6c11.9 2.2 22.4 5.5 46.4 14.5 22.8 8.7 31.1 11.1 43.6 13 9.3 1.3 32.6.7 39.9-1.2 7.5-1.8 23-1.7 26.7.4 9.8 5.3 19.2 26.2 16.3 36.4-1.7 6.2-2.3 6.7-5.7 5-1.6-.9-5.9-2.1-9.5-2.7-8.4-1.5-17.3-.3-33.8 4.6-17 4.9-27.5 5.1-25 .4 1.6-2.9 1.3-14.5-.4-16-1.2-.9-2.1-.2-5.2 4.5-2.3 3.4-5.5 6.6-8.1 8.2-3.9 2.2-5.2 2.5-10.7 2.1-5.3-.5-9.5-2-24.7-9.1-10.1-4.6-20.6-9.2-23.4-10.2-12.6-4.3-24.9-5.5-35.6-3.5-12.3 2.3-26.2 11.9-31.1 21.3-3.1 6.2-2.3 6.6 7.9 4.5 4.8-1 10.7-1.8 13.1-1.8h4.2v4.3c0 13.9 11.1 25.7 24.2 25.7 9.7-.1 18.3-6.2 20.9-15 .7-2.2 1.5-4 1.9-4 1.2 0 12.4 7.6 13.9 9.4 1.3 1.5 1.2 2.2-.4 5.2-1.9 3.6-13.8 15.4-15.5 15.4-.6 0-1 .7-1 1.5 0 2 1.4 1.9 11.4-1 9.4-2.7 16.6-3.3 16.6-1.3 0 .7-3.2 3.1-7.2 5.3-10.2 5.7-17 12.7-21.6 22.2-3.5 7.4-3.7 8.3-3.7 17.8 0 9.2.3 10.6 3.2 16.8 3.8 8 11.7 16.4 19.1 20.1 8.9 4.5 9.1 3.6 2.3-6.8-6.1-9.3-8.1-15-8.8-24.6-1-13 3.9-24.5 13.4-31.4 7.2-5.3 13.3-7.1 23.8-7 10.9.1 17.5 2.3 28.4 9.5 4.1 2.7 7.8 4.9 8.3 4.9s2.5-1.2 4.4-2.7c1.9-1.4 5.8-3.4 8.6-4.3 2.9-.9 5.4-2.2 5.6-2.9s-3.2-4.6-7.7-8.8-8.1-8-8.1-8.4c0-.5 2-.9 4.5-.9 8.5 0 15.3-6.1 16.3-14.5.3-2.7 1-4.5 1.7-4.5 2.3 0 11 6.6 10.7 8.1-.2.8-.6 5.5-.9 10.6l-.6 9.2-4.3 4.2c-2.4 2.4-4.4 4.8-4.4 5.5 0 .6 3.4 2.8 7.6 4.9 16.9 8.3 27.4 24.7 27.4 42.9 0 3.3-.9 9.7-2.1 14.2l-2 8.1 4.8 6.4c10.6 14 15.6 29.1 15.7 46.4 0 10.6-1.6 21.9-3.4 23-.4.3-6.3-.8-13.1-2.5-26.4-6.4-55.5-7.4-86.4-2.9-30.2 4.4-67.5 15.6-67.5 20.3 0 1.9 2.5 2 9.8.6 11.7-2.2 33.7-4.9 48.7-6.1 31-2.3 67.4 1.8 85 9.5l5.7 2.6-.7 3.7c-.3 2.1-1.8 6.5-3.3 9.8-13.9 31.7-39.1 52.6-69.7 58-29.9 5.2-63.4-2.6-87.1-20.2-33.4-25-45.4-71.2-30.2-117.3 1.1-3.6 4.9-13.7 8.3-22.5 10.6-27.2 12.7-40.4 8.5-51.9-2.6-6.9-11.4-15.3-22.6-21.5-21.7-12.2-35.3-23.5-43.9-36.6-11-16.8-14.9-39.3-9.7-56 6.5-21 23.3-36.1 45.7-41 8.3-1.8 24.6-1.8 34.6.1m-295.1 8c0 .3-1.1 4.5-2.5 9.5-1.4 4.9-5.2 19.4-8.5 32.1-4.1 15.9-6.5 23.7-7.7 24.6-2.4 1.7-18.2 6.7-29.6 9.3-11.5 2.7-28.7 3.1-33.2.9-4.1-2.1-4.5-6-.9-11.3 9.1-13.9 39.3-39.2 70.4-58.9 10.1-6.5 12-7.4 12-6.2M466.5 534c2.7 1.4 5 3 5.1 3.5.2.6-3.2 2.7-7.4 4.7-14.4 6.9-22.6 17.9-22.6 30.3 0 8.4 3.7 15.9 11.8 24.4 8.2 8.4 10.1 12.6 8.5 18.4-1.5 5.7-3.7 9.7-5.3 9.7-2.5 0-13.1-7.7-19.1-13.8-17.4-17.7-22.5-41.4-13-60.7 3.2-6.6 12.8-15.7 18.7-17.9 6.5-2.3 17.2-1.7 23.3 1.4m508.1 319.4c11.4 2 18.8 4.3 27.3 8.3 6.7 3.2 7.3 3.7 5.7 4.8-5.4 4-25.4 2.7-42.6-2.7-11.7-3.7-20.6-9.2-17.8-11 2.1-1.3 18.7-.9 27.4.6"/>
  <path class="icon" d="M725.5 638.3c-2.8 2.8-3.5 4.3-3.5 7.3.1 10.4 8.6 18.8 23.4 23.1 2.8.8 8.2 2.9 11.9 4.6 8.9 4 10.2 3.3 10.1-4.9-.1-7.6-4.4-16.3-11.3-23.1-6.6-6.5-13-9.6-20.8-10.1-6.1-.4-6.4-.3-9.8 3.1M793.5 642.9c-7 4.3-11 12.6-10.2 21.1.5 6.2 3.9 15 6.7 17.5 1.8 1.6 1.9 1.5 2.9-2.2 1.5-5.2 1.8-5.5 8.4-8.7 12-5.8 15.4-19.7 6.6-27.1-3.7-3.1-10-3.4-14.4-.6M301.7 650.7c-.3.5-1.7 5.3-3.1 10.8-6.8 25.5-18.8 62-23.1 70.5-3.3 6.6-10 14.8-24.1 29.7-12.3 13-12.5 13.3-10 14.3 29.9 11.3 65.2 30.8 94.1 51.8 21.7 15.8 33.1 25.6 55.1 47.6 28.6 28.7 41.7 45.1 69.9 87.6 7.9 11.8 15.4 22.5 16.7 23.6 4.1 3.8 42 20.4 69.1 30.3 35.9 13.1 74.2 23.9 101 28.5 5.2 1 4.9-.5-2.9-14.3-25.5-44.4-60.9-84.5-105.6-119.4-4.9-3.8-8.8-7.4-8.8-8.2 0-1.4 6.5-11.2 21.6-32.6 5.7-8.1 10.4-15.3 10.4-16 0-3.1-56.8-58.2-86-83.5-48.2-41.6-115.2-89.5-162.7-116.3-9.1-5.1-10.8-5.7-11.6-4.4"/>
</svg>
